<?xml version="1.0" encoding="utf-8"?>
<!-- Generator: Adobe Illustrator 22.0.1, SVG Export Plug-In . SVG Version: 6.00 Build 0)  -->
<svg version="1.1" id="Layer_1" xmlns:serif="http://www.serif.com/"
	 xmlns="http://www.w3.org/2000/svg" xmlns:xlink="http://www.w3.org/1999/xlink" x="0px" y="0px" viewBox="0 0 1366 768"
	 style="enable-background:new 0 0 1366 768;" xml:space="preserve">
<style type="text/css">
	.st0{fill:#FFFFFF;}
	.st1{fill:#94D6DA;}
</style>
<path class="st0" d="M396.4,227.8c16.9,2,36.5,4,56.8,5.6l2.3,0.3L566.7,345h131.8V227.8H396.4L396.4,227.8z M518.9,366.6
	c-20.2,0-43.2-1.3-65.7-3c4.6,52.1,11.3,98.9,11.3,98.9h117.2c0,0-6.6-47.2-11.3-99.3C550.5,365.9,533.2,366.6,518.9,366.6
	 M452.9,239.8c-54.8-4.6-105.6-12-105.6-12V345c0,0,101.3,15.3,171.7,15.3c14.9,0,31.9-0.7,51.1-3.7L452.9,239.8L452.9,239.8z
	 M581.7,110.6H464.5v110.9h117.2V110.6z M573,351.3l2.7,2.7l0.3,2.3c0,2,0.3,4,0.3,5.6c1.7,18.3,3.3,35.9,5.3,50.8v-61.4H573
	L573,351.3z"/>
<path class="st0" d="M1066.7,574.4l-34.9-10.3c-22.6-7.3-37.9-28.6-37.9-52.1c0-30.9,24.6-55.1,55.4-55.1h68.7v24.6h-48.1
	c-9.3,0-17.6,7.3-17.6,17.3c0,6.3,4,13.3,11.3,15.3l33.9,11.3c23.6,7.3,35.9,30.9,35.9,57.4c0,33.9-27.6,61.4-61.4,61.4h-72.7v-27.6
	h62.4c9.3,0,19.6-9.3,19.6-21.6C1081,585.7,1075.7,577.4,1066.7,574.4 M746.7,574.4l-34.9-10.3c-21.6-7.3-36.9-28.6-36.9-52.1
	c0-30.9,24.6-55.1,55.4-55.1H799v24.6h-48c-9.3,0-17.3,7.3-17.3,17.3c0,6.3,4,13.3,11.3,15.3l33.9,11.3
	c22.6,7.3,34.9,30.9,34.9,57.4c0,33.9-26.6,61.4-60.4,61.4h-72.7v-27.6H743c9.3,0,19.6-9.3,19.6-21.6
	C762.3,585.7,756,577.4,746.7,574.4 M905.7,650.1c-42.2,0-75-29.5-75-66.7V457.6h56.4v131.1c0,16.6,14.3,29.9,32.9,29.9
	c17.3,0,32.9-13.3,32.9-29.9V457.6h26.6v125.8C979.4,620.6,946.6,650.1,905.7,650.1"/>
<path class="st1" d="M382.8,456.6v187.9h-38.2l-3-20.3c-9.3,13.6-25.6,22.9-46.5,22.9c-37.8,0-58.4-29.2-58.4-66.7
	c0-43.5,28.9-66.4,59.8-66.4c25.9,0,37.5,14.3,41.8,20.3v-77.4h44.5L382.8,456.6L382.8,456.6z M282.9,581.1
	c0,20.6,5.3,38.5,27.2,38.5c21.9,0,28.9-18.3,28.9-40.5c0-21.6-7.3-37.9-27.9-37.9C291.8,541.6,282.9,556.9,282.9,581.1z"/>
<path class="st1" d="M577.7,537.9c4,3.7,10.6,9.3,10.6,20.6c0,26.6-33.5,36.5-63.1,36.5c-8.6,0-12.9-1-17.3-1.7c-5.3,5.3-7,8.3-7,11
	c0,5.6,8,6.6,20.6,7.3c24.9,1.7,82.3,0.7,82.3,38.8c0,25.9-32.5,44.2-77.7,44.2c-35.9,0-71.4-11.3-71.4-29.2
	c0-14.9,19.6-21.9,38.2-27.6c-8.6-2-23.9-6.3-23.9-17.6c0-9.6,9-17.3,22.2-28.9c-14.6-4-34.9-12.9-34.9-35.9
	c0-21.9,19.3-40.8,61.8-40.8c13.6,0,21.9,1.7,30.9,3.3l50.1-0.7v21.6h-21.6L577.7,537.9L577.7,537.9z M493.7,658.1
	c0,12.3,20.6,14.9,35.5,14.9c15.3,0,36.9-3,36.9-15.9s-23.9-15.3-37.9-15.3C501.3,641.8,493.7,648.8,493.7,658.1L493.7,658.1z
	 M497.3,554.9c0,13.6,11.3,20.3,25.2,20.3c9,0,26.2-3.3,26.2-20.6c0-14.6-11.3-20.6-25.9-20.6C511,533.9,497.3,538.6,497.3,554.9
	L497.3,554.9z"/>
<path class="st1" d="M577.7,537.9c4,3.7,10.6,9.3,10.6,20.6c0,26.6-33.5,36.5-63.1,36.5c-8.6,0-12.9-1-17.3-1.7c-5.3,5.3-7,8.3-7,11
	c0,5.6,8,6.6,20.6,7.3c24.9,1.7,82.3,0.7,82.3,38.8c0,25.9-32.5,44.2-77.7,44.2c-35.9,0-71.4-11.3-71.4-29.2
	c0-14.9,19.6-21.9,38.2-27.6c-8.6-2-23.9-6.3-23.9-17.6c0-9.6,9-17.3,22.2-28.9c-14.6-4-34.9-12.9-34.9-35.9
	c0-21.9,19.3-40.8,61.8-40.8c13.6,0,21.9,1.7,30.9,3.3l50.1-0.7v21.6h-21.6L577.7,537.9L577.7,537.9z M493.7,658.1
	c0,12.3,20.6,14.9,35.5,14.9c15.3,0,36.9-3,36.9-15.9s-23.9-15.3-37.9-15.3C501.3,641.8,493.7,648.8,493.7,658.1L493.7,658.1z
	 M497.3,554.9c0,13.6,11.3,20.3,25.2,20.3c9,0,26.2-3.3,26.2-20.6c0-14.6-11.3-20.6-25.9-20.6C511,533.9,497.3,538.6,497.3,554.9
	L497.3,554.9z"/>
<path class="st1" d="M447.5,516.7v127.8h-44.2V516.7H447.5z M424.3,455.6c-12.6,0-22.9,10.3-22.9,22.9s10.3,22.9,22.9,22.9
	s22.9-10.3,22.9-22.9C447.2,465.9,437.2,455.6,424.3,455.6z"/>
<path class="st1" d="M660,516.7v127.8h-44.2V516.7H660z M636.8,455.6c-12.6,0-22.9,10.3-22.9,22.9s10.3,22.9,22.9,22.9
	s22.9-10.3,22.9-22.9S649.4,455.6,636.8,455.6z"/>
<g>
	<path class="st0" d="M960.3,681.6c1.1,1.6,2.3,3.5,3.6,5.8c1.3,2.3,2.7,4.7,4.1,7.3c1.4,2.5,2.7,5.1,4.1,7.7c1.4,2.6,2.6,5,3.7,7.3
		c1.1-2.2,2.4-4.6,3.7-7.3c1.3-2.6,2.7-5.2,4.1-7.7c1.4-2.5,2.7-5,4.1-7.3c1.3-2.3,2.5-4.2,3.6-5.8h8.4c0.5,3.2,0.9,6.6,1.3,10.1
		s0.8,7.2,1.1,11c0.3,3.7,0.6,7.5,0.9,11.3c0.3,3.8,0.5,7.5,0.7,11.1h-9.2c-0.2-5.1-0.4-10.3-0.7-15.6c-0.3-5.4-0.7-10.5-1.2-15.6
		c-0.5,1-1.2,2.1-1.9,3.5c-0.7,1.3-1.5,2.8-2.4,4.4c-0.8,1.6-1.7,3.2-2.5,4.9c-0.9,1.7-1.7,3.3-2.5,4.9s-1.6,3-2.3,4.4
		c-0.7,1.4-1.3,2.5-1.8,3.5h-6.9c-0.5-1-1.1-2.1-1.8-3.5c-0.7-1.4-1.4-2.9-2.3-4.4c-0.8-1.6-1.7-3.2-2.5-4.9
		c-0.9-1.7-1.7-3.3-2.5-4.8s-1.6-3-2.4-4.4c-0.7-1.4-1.4-2.5-1.9-3.4c-0.6,5-1,10.2-1.2,15.6c-0.3,5.4-0.5,10.6-0.7,15.6h-9.2
		c0.2-3.6,0.4-7.3,0.7-11.2c0.3-3.9,0.6-7.7,0.9-11.5c0.3-3.8,0.7-7.5,1.1-11c0.4-3.6,0.8-6.8,1.3-9.9H960.3z"/>
	<path class="st0" d="M1038.4,687.6c-5.3,0-9.3,1.4-12.1,4.2c-2.8,2.8-4.2,6.6-4.2,11.6c0,2.3,0.3,4.5,1,6.4c0.7,1.9,1.6,3.6,3,5
		c1.3,1.4,2.9,2.5,4.9,3.2c1.9,0.8,4.2,1.2,6.8,1.2c1.6,0,3-0.1,4.2-0.2c1.2-0.1,2.1-0.2,2.8-0.4V703h9.3v20.9
		c-1.3,0.4-3.4,0.9-6.5,1.4c-3.1,0.5-6.6,0.8-10.6,0.8c-3.7,0-7.1-0.5-10.1-1.5c-3.1-1-5.7-2.5-7.8-4.4c-2.1-1.9-3.8-4.3-5-7.1
		c-1.2-2.8-1.8-6-1.8-9.7c0-3.6,0.7-6.9,2-9.7c1.3-2.8,3.1-5.2,5.4-7.1c2.3-1.9,4.9-3.4,8-4.4c3.1-1,6.3-1.5,9.8-1.5
		c2.4,0,4.5,0.1,6.3,0.4c1.8,0.3,3.4,0.6,4.8,0.9c1.3,0.3,2.4,0.7,3.3,1.1c0.9,0.4,1.5,0.7,1.8,0.8l-2.8,6.5
		c-1.5-0.8-3.3-1.4-5.5-1.9C1043.1,687.8,1040.8,687.6,1038.4,687.6z"/>
	<path class="st0" d="M1108.4,703.3c0,3.8-0.7,7-2.1,9.8c-1.4,2.8-3.3,5.1-5.9,7c-2.5,1.9-5.6,3.2-9.2,4.1
		c-3.6,0.9-7.5,1.3-11.9,1.3c-2.1,0-4.4-0.1-7-0.2c-2.6-0.1-5.1-0.4-7.5-0.9v-42.3c2.4-0.5,4.9-0.8,7.5-0.9c2.7-0.1,5-0.2,7.1-0.2
		c4.3,0,8.2,0.4,11.7,1.3c3.5,0.9,6.6,2.2,9.1,4c2.5,1.8,4.5,4.1,5.9,6.9C1107.7,696.2,1108.4,699.5,1108.4,703.3z M1074.2,718.6
		c0.5,0,1.3,0.1,2.1,0.1c0.9,0,2.1,0,3.6,0c6.3,0,10.9-1.3,14-4.1c3.1-2.7,4.6-6.5,4.6-11.3c0-4.9-1.5-8.7-4.5-11.4s-7.7-4-14-4
		c-2.8,0-4.7,0.1-5.9,0.2V718.6z"/>
	<path class="st0" d="M1118.6,681.6h9.3v43.5h-9.3V681.6z"/>
</g>
</svg>
